# xmcd
#
# Track frame offsets:
#	150
#	10665
#	22279
#	33520
#	44651
#	59836
#	73195
#	89593
#	101221
#	113317
#	122885
#	135561
#	147749
#	158424
#	172733
#	185418
#	195456
#	207705
#	218382
#	228671
#	239067
#	253450
#	266928
#	279250
#
# Disc length: 3865 seconds
#
# Revision: 0
# Processed by: cddbd v1.5.2PL0 Copyright (c) Steve Scherf et al.
# Submitted via: audiograbber 1.83.01
#
DISCID=780f1718
DTITLE=Various Artist - Magic Moments With Country Hits
DYEAR=1985
DGENRE=Country
TTITLE0=Jim Reeves - He'll Have To Go
TTITLE1=Skeeter Davis - The End Of The World
TTITLE2=Hank Locklin - Send Me The Pillow You Dream On
TTITLE3=Don Gibson - Oh Lonesome Me
TTITLE4=George Hamilton The 4th - Canadian Pacific
TTITLE5=John Hartford - Gentle On My Mind
TTITLE6=Tom T. Hall - Mr. Bojangles
TTITLE7=Eddy Arnold - Make The World Go Away
TTITLE8=Hank Snow - I'm Movin' On
TTITLE9=Sons Of The Pioneers - Cool Water
TTITLE10=The Browns - The Three Bells
TTITLE11=Bobby Bare - 500 Miles Away From Home
TTITLE12=Floyd Cramer - Last Date
TTITLE13=Lorne Green - Ringo
TTITLE14=Slim Whitman - Birmingham Jail
TTITLE15=Waylon Jennings - Ruby Don't Take Your love To Town
TTITLE16=Dave and Sugar - Queen Of The Silver Dollar
TTITLE17=Porter Waggoner - Green Green Grass Of Home 
TTITLE18=Connie Smith - Once A Day
TTITLE19=Ronnie Milsap - Pure love
TTITLE20=Willie Nelson - Sweet Memories
TTITLE21=Jim Ed Brown/Helen Cornelius - You Don't Bring Me Flowers
TTITLE22=Dottie West - Would You Hold It Against Me
TTITLE23=Jerry Reed - Guitar Man
EXTD=R.C.A. NK89625
EXTT0=(1959)
EXTT1=(1962)
EXTT2=(1958)
EXTT3=(1958)
EXTT4=(1969)
EXTT5=(1967)
EXTT6=(1978)
EXTT7=(1965)
EXTT8=(1950)
EXTT9=(1960)
EXTT10=(1959)
EXTT11=(1963)
EXTT12=(1960)
EXTT13=(1964)
EXTT14=Traditional
EXTT15=(1967)
EXTT16=(1976)
EXTT17=(1965)
EXTT18=(1964)
EXTT19=(1974)
EXTT20=(1968)
EXTT21=(1978)
EXTT22=(1966)
EXTT23=(1966
PLAYORDER=
